<svg width="96" height="96" viewBox="0 0 96 96" fill="none" xmlns="http://www.w3.org/2000/svg">
<path d="M93.2212 22.0012C90.855 17.925 84.5962 14.1037 68.4112 18.36C63.0093 14.6323 56.6906 12.4534 50.1392 12.059C43.5878 11.6647 37.0533 13.0699 31.2433 16.1227C25.4332 19.1755 20.5689 23.7594 17.177 29.3783C13.7851 34.9971 11.9948 41.4367 12 48C12 48.9 12.0325 49.7925 12.0975 50.6775C0.209996 62.5725 0.412497 69.9 2.79 73.9987C5.025 77.8538 9.4875 79.5 15.255 79.5C18.9262 79.5 23.13 78.8325 27.6112 77.6588C33.0143 81.3811 39.3325 83.5551 45.8821 83.9455C52.4317 84.3358 58.9633 82.9277 64.7703 79.8734C70.5772 76.8191 75.4384 72.235 78.8278 66.617C82.2172 60.9991 84.0058 54.5612 84 48C84 47.0962 83.9662 46.2037 83.8987 45.315C89.265 39.9225 92.8462 34.7362 94.0237 30.315C95.0812 26.4075 94.17 23.625 93.2212 22.0012ZM48 21C54.1155 21.0083 60.0476 23.0892 64.8281 26.9032C69.6085 30.7173 72.955 36.0391 74.3212 42C69 46.7737 61.875 51.9712 53.22 56.9475C45.0675 61.6312 36.8887 65.3325 29.5612 67.6912C25.6153 63.9894 22.8725 59.1874 21.6886 53.908C20.5047 48.6285 20.9343 43.1151 22.9216 38.0828C24.9089 33.0504 28.3623 28.7312 32.834 25.6851C37.3057 22.6391 42.5894 21.0069 48 21ZM10.5712 69.4837C10.3425 69.0825 10.5075 66.4012 14.5725 61.3425C15.8351 64.4944 17.5383 67.4514 19.6312 70.125C13.17 71.1037 10.8187 69.9037 10.5712 69.4837ZM48 75C45.1251 75.0005 42.2688 74.5396 39.54 73.635C45.7882 71.0916 51.8548 68.1234 57.6975 64.7513C63.5182 61.4317 69.1028 57.7141 74.4112 53.625C73.1151 59.67 69.787 65.0884 64.9813 68.9778C60.1756 72.8671 54.1824 74.9925 48 75ZM85.3387 27.9937C84.8587 29.7862 83.535 32.07 81.4425 34.6687C80.1798 31.5126 78.4753 28.5518 76.38 25.875C82.3162 24.9862 85.0687 25.875 85.4362 26.5162C85.5 26.625 85.5788 27.105 85.3387 27.9937Z" fill="#F77912"/>
</svg>
